<mxfile host="app.diagrams.net" modified="2023-12-22T12:28:38.811Z" agent="Mozilla/5.0 (Windows NT 10.0; Win64; x64) AppleWebKit/537.36 (KHTML, like Gecko) Chrome/120.0.0.0 Safari/537.36" etag="qjNTwP6nQyU49bkLhZES" version="22.1.11" type="device">
  <diagram name="Страница — 1" id="N-qAw4Ii0so-HZ5WBmBv">
    <mxGraphModel dx="2802" dy="1046" grid="0" gridSize="10" guides="1" tooltips="1" connect="1" arrows="1" fold="1" page="1" pageScale="1" pageWidth="827" pageHeight="1169" background="none" math="0" shadow="0">
      <root>
        <mxCell id="0" />
        <mxCell id="1" parent="0" />
        <mxCell id="5nABSl6TricY1-DJC5i2-2" value="&lt;p style=&quot;margin:0px;margin-top:4px;text-align:center;&quot;&gt;&lt;b&gt;Client&lt;/b&gt;&lt;/p&gt;&lt;hr size=&quot;1&quot;&gt;&lt;p style=&quot;margin:0px;margin-left:4px;&quot;&gt;- id: int&lt;/p&gt;&lt;p style=&quot;margin:0px;margin-left:4px;&quot;&gt;- name: string&lt;/p&gt;&lt;p style=&quot;margin:0px;margin-left:4px;&quot;&gt;- mobile_number: string&lt;/p&gt;&lt;p style=&quot;margin:0px;margin-left:4px;&quot;&gt;- email: string&lt;/p&gt;&lt;p style=&quot;margin:0px;margin-left:4px;&quot;&gt;- adress: string&lt;/p&gt;&lt;p style=&quot;margin:0px;margin-left:4px;&quot;&gt;- login: string&lt;/p&gt;&lt;p style=&quot;margin:0px;margin-left:4px;&quot;&gt;- password: string&lt;/p&gt;&lt;hr size=&quot;1&quot;&gt;&lt;p style=&quot;margin:0px;margin-left:4px;&quot;&gt;+ Client(int, string, string, string, string, string, string)&lt;/p&gt;&lt;p style=&quot;margin:0px;margin-left:4px;&quot;&gt;+ get_client_id(): int&lt;/p&gt;&lt;p style=&quot;margin:0px;margin-left:4px;&quot;&gt;+ get_client_name(): string&lt;/p&gt;&lt;p style=&quot;margin:0px;margin-left:4px;&quot;&gt;+ get_client_adress(): string&lt;/p&gt;&lt;p style=&quot;margin:0px;margin-left:4px;&quot;&gt;+ get_client_mobile_number(): string&lt;/p&gt;&lt;p style=&quot;margin:0px;margin-left:4px;&quot;&gt;+ get_client_email(): string&lt;/p&gt;&lt;p style=&quot;margin:0px;margin-left:4px;&quot;&gt;+ change_password(): string&lt;/p&gt;" style="verticalAlign=top;align=left;overflow=fill;fontSize=12;fontFamily=Helvetica;html=1;whiteSpace=wrap;" parent="1" vertex="1">
          <mxGeometry x="298" y="871" width="313" height="286" as="geometry" />
        </mxCell>
        <mxCell id="5nABSl6TricY1-DJC5i2-4" value="&lt;p style=&quot;margin:0px;margin-top:4px;text-align:center;&quot;&gt;&lt;b&gt;Table&lt;/b&gt;&lt;/p&gt;&lt;hr size=&quot;1&quot;&gt;&lt;p style=&quot;margin:0px;margin-left:4px;&quot;&gt;- id: int&lt;/p&gt;&lt;p style=&quot;margin:0px;margin-left:4px;&quot;&gt;- places: int&lt;br&gt;&lt;/p&gt;&lt;p style=&quot;margin:0px;margin-left:4px;&quot;&gt;- remark: string&lt;/p&gt;&lt;p style=&quot;margin:0px;margin-left:4px;&quot;&gt;- hall_id: Hall&lt;/p&gt;&lt;hr size=&quot;1&quot;&gt;&lt;p style=&quot;margin:0px;margin-left:4px;&quot;&gt;+ Table(int, int, string, Hall)&lt;/p&gt;&lt;p style=&quot;margin:0px;margin-left:4px;&quot;&gt;+ get_table_id(): int&lt;/p&gt;&lt;p style=&quot;margin:0px;margin-left:4px;&quot;&gt;+ get_table_places(): int&lt;/p&gt;&lt;p style=&quot;margin:0px;margin-left:4px;&quot;&gt;+ get_table_remark(): string&lt;/p&gt;" style="verticalAlign=top;align=left;overflow=fill;fontSize=12;fontFamily=Helvetica;html=1;whiteSpace=wrap;" parent="1" vertex="1">
          <mxGeometry x="291.5" y="1277" width="230" height="187" as="geometry" />
        </mxCell>
        <mxCell id="5nABSl6TricY1-DJC5i2-5" value="&lt;p style=&quot;margin:0px;margin-top:4px;text-align:center;&quot;&gt;&lt;b&gt;Hall&lt;/b&gt;&lt;/p&gt;&lt;hr size=&quot;1&quot;&gt;&lt;p style=&quot;margin:0px;margin-left:4px;&quot;&gt;- id: int&lt;/p&gt;&lt;p style=&quot;margin:0px;margin-left:4px;&quot;&gt;- description: string&lt;/p&gt;&lt;p style=&quot;margin:0px;margin-left:4px;&quot;&gt;&lt;span style=&quot;background-color: initial;&quot;&gt;- smoke: boolean&lt;/span&gt;&lt;/p&gt;&lt;p style=&quot;margin:0px;margin-left:4px;&quot;&gt;&lt;span style=&quot;background-color: initial;&quot;&gt;- music: boolean&lt;/span&gt;&lt;/p&gt;&lt;hr size=&quot;1&quot;&gt;&lt;p style=&quot;margin:0px;margin-left:4px;&quot;&gt;+ Hall (string, boolean, boolean)&lt;/p&gt;&lt;p style=&quot;margin:0px;margin-left:4px;&quot;&gt;+ get_hall_id(): int&lt;/p&gt;&lt;p style=&quot;margin:0px;margin-left:4px;&quot;&gt;+ get_hall_description(): string&lt;/p&gt;&lt;p style=&quot;margin:0px;margin-left:4px;&quot;&gt;+ get_hall_is_smoke(): boolean&lt;/p&gt;&lt;p style=&quot;margin:0px;margin-left:4px;&quot;&gt;+ get_hall_is_music(): boolean&lt;/p&gt;" style="verticalAlign=top;align=left;overflow=fill;fontSize=12;fontFamily=Helvetica;html=1;whiteSpace=wrap;" parent="1" vertex="1">
          <mxGeometry x="304.14" y="1575" width="204.72" height="182" as="geometry" />
        </mxCell>
        <mxCell id="5nABSl6TricY1-DJC5i2-7" value="Data_Base" style="shape=datastore;whiteSpace=wrap;html=1;" parent="1" vertex="1">
          <mxGeometry x="-5" y="1849.74" width="124" height="128" as="geometry" />
        </mxCell>
        <mxCell id="5nABSl6TricY1-DJC5i2-9" value="&lt;p style=&quot;margin:0px;margin-top:4px;text-align:center;&quot;&gt;&lt;b&gt;Order&lt;/b&gt;&lt;/p&gt;&lt;hr size=&quot;1&quot;&gt;&lt;p style=&quot;margin:0px;margin-left:4px;&quot;&gt;- id: int&lt;/p&gt;&lt;p style=&quot;margin:0px;margin-left:4px;&quot;&gt;- date: datetime&lt;/p&gt;&lt;p style=&quot;margin:0px;margin-left:4px;&quot;&gt;- guests: int&lt;/p&gt;&lt;p style=&quot;margin:0px;margin-left:4px;&quot;&gt;- status: varchar&lt;/p&gt;&lt;p style=&quot;margin:0px;margin-left:4px;&quot;&gt;- client: Client&lt;/p&gt;&lt;p style=&quot;margin:0px;margin-left:4px;&quot;&gt;- table: Table&lt;br&gt;&lt;/p&gt;&lt;p style=&quot;margin:0px;margin-left:4px;&quot;&gt;- feedback: Feedback&lt;/p&gt;&lt;hr size=&quot;1&quot;&gt;&lt;p style=&quot;margin:0px;margin-left:4px;&quot;&gt;+ Order(datetime,&amp;nbsp;&lt;/p&gt;int, varchar,&amp;nbsp;&lt;span style=&quot;background-color: initial;&quot;&gt;Client, Table, Feedback)&lt;/span&gt;&lt;br&gt;&lt;p style=&quot;margin:0px;margin-left:4px;&quot;&gt;+ get_order_date(): datetime&lt;/p&gt;&lt;p style=&quot;margin:0px;margin-left:4px;&quot;&gt;+ get_order_guests(): int&lt;/p&gt;&lt;p style=&quot;margin:0px;margin-left:4px;&quot;&gt;+ get_order_status(): varchar&lt;/p&gt;&lt;p style=&quot;margin:0px;margin-left:4px;&quot;&gt;+ set_order_status(): varchar&lt;/p&gt;&lt;p style=&quot;margin:0px;margin-left:4px;&quot;&gt;+ set_order_client(): Client&lt;/p&gt;&lt;p style=&quot;margin:0px;margin-left:4px;&quot;&gt;+ set_order_table(): Table&lt;/p&gt;&lt;p style=&quot;margin:0px;margin-left:4px;&quot;&gt;+ set_order_feedback(): Feedback&lt;/p&gt;" style="verticalAlign=top;align=left;overflow=fill;fontSize=12;fontFamily=Helvetica;html=1;whiteSpace=wrap;" parent="1" vertex="1">
          <mxGeometry x="-47" y="874" width="243" height="280" as="geometry" />
        </mxCell>
        <mxCell id="5nABSl6TricY1-DJC5i2-21" value="1" style="endArrow=open;html=1;endSize=12;startArrow=diamondThin;startSize=14;startFill=1;edgeStyle=orthogonalEdgeStyle;align=left;verticalAlign=bottom;rounded=0;entryX=0;entryY=0.5;entryDx=0;entryDy=0;exitX=0.998;exitY=0.709;exitDx=0;exitDy=0;exitPerimeter=0;" parent="1" source="5nABSl6TricY1-DJC5i2-9" target="5nABSl6TricY1-DJC5i2-4" edge="1">
          <mxGeometry x="-1" y="3" relative="1" as="geometry">
            <mxPoint x="230.5" y="1103" as="sourcePoint" />
            <mxPoint x="483.5" y="1007" as="targetPoint" />
          </mxGeometry>
        </mxCell>
        <mxCell id="5nABSl6TricY1-DJC5i2-22" value="&lt;p style=&quot;margin:0px;margin-top:4px;text-align:center;&quot;&gt;&lt;b&gt;Reservation&lt;/b&gt;&lt;/p&gt;&lt;hr size=&quot;1&quot;&gt;&lt;p style=&quot;margin:0px;margin-left:4px;&quot;&gt;- id: int&lt;/p&gt;&lt;p style=&quot;margin:0px;margin-left:4px;&quot;&gt;- amount: float&lt;/p&gt;&lt;p style=&quot;margin:0px;margin-left:4px;&quot;&gt;- payment_type: varchar&lt;/p&gt;&lt;p style=&quot;margin:0px;margin-left:4px;&quot;&gt;- status: boolean&lt;/p&gt;&lt;p style=&quot;margin:0px;margin-left:4px;&quot;&gt;- date_time: datetime&lt;/p&gt;&lt;p style=&quot;margin:0px;margin-left:4px;&quot;&gt;- client: Client&lt;/p&gt;&lt;p style=&quot;margin:0px;margin-left:4px;&quot;&gt;- order: Order&lt;/p&gt;&lt;hr size=&quot;1&quot;&gt;&lt;p style=&quot;margin:0px;margin-left:4px;&quot;&gt;+ Reservation(float, varchar, boolean, datetime, Client, Order)&lt;/p&gt;&lt;p style=&quot;margin:0px;margin-left:4px;&quot;&gt;+ get_reservation_amount(): float&lt;/p&gt;&lt;p style=&quot;margin:0px;margin-left:4px;&quot;&gt;+ set_reservation_amount(float): void&lt;/p&gt;&lt;p style=&quot;margin:0px;margin-left:4px;&quot;&gt;+ get_reservation_payment_type(): varchar&lt;/p&gt;&lt;p style=&quot;margin:0px;margin-left:4px;&quot;&gt;+ get_reservation_status(): boolean&lt;/p&gt;&lt;p style=&quot;margin:0px;margin-left:4px;&quot;&gt;+ set_reservation_status(): boolean&lt;br&gt;&lt;/p&gt;&lt;p style=&quot;margin:0px;margin-left:4px;&quot;&gt;+ get_reservation_date(): datetime&lt;/p&gt;&lt;p style=&quot;margin:0px;margin-left:4px;&quot;&gt;+ get_reservation_client(): Client&lt;/p&gt;&lt;p style=&quot;margin:0px;margin-left:4px;&quot;&gt;+ get_reservation_order(): Order&lt;/p&gt;" style="verticalAlign=top;align=left;overflow=fill;fontSize=12;fontFamily=Helvetica;html=1;whiteSpace=wrap;" parent="1" vertex="1">
          <mxGeometry x="-47" y="486" width="243" height="306" as="geometry" />
        </mxCell>
        <mxCell id="5nABSl6TricY1-DJC5i2-23" value="&lt;p style=&quot;margin:0px;margin-top:4px;text-align:center;&quot;&gt;&lt;b&gt;Controller&lt;/b&gt;&lt;/p&gt;&lt;hr size=&quot;1&quot;&gt;&lt;p style=&quot;margin:0px;margin-left:4px;&quot;&gt;- adapter: iAdapter&lt;/p&gt;&lt;p style=&quot;margin:0px;margin-left:4px;&quot;&gt;- repository: iRepository&lt;/p&gt;&lt;p style=&quot;margin:0px;margin-left:4px;&quot;&gt;- order: Order&lt;/p&gt;&lt;p style=&quot;margin:0px;margin-left:4px;&quot;&gt;- reservation: Reservation&lt;/p&gt;&lt;hr size=&quot;1&quot;&gt;&lt;p style=&quot;margin:0px;margin-left:4px;&quot;&gt;+ confirm_reservation(): boolean&lt;/p&gt;&lt;p style=&quot;margin:0px;margin-left:4px;&quot;&gt;+ change_reservation_status(): boolean&lt;/p&gt;&lt;p style=&quot;margin:0px;margin-left:4px;&quot;&gt;+ confirm_order(): boolean&lt;/p&gt;&lt;p style=&quot;margin:0px;margin-left:4px;&quot;&gt;+ cancel_order(): boolean&lt;/p&gt;&lt;p style=&quot;margin:0px;margin-left:4px;&quot;&gt;+ change_order_status(): varchar&lt;/p&gt;" style="verticalAlign=top;align=left;overflow=fill;fontSize=12;fontFamily=Helvetica;html=1;whiteSpace=wrap;" parent="1" vertex="1">
          <mxGeometry x="-362" y="680" width="223" height="209" as="geometry" />
        </mxCell>
        <mxCell id="5nABSl6TricY1-DJC5i2-26" value="1" style="endArrow=open;html=1;endSize=12;startArrow=diamondThin;startSize=14;startFill=1;edgeStyle=orthogonalEdgeStyle;align=left;verticalAlign=bottom;rounded=0;" parent="1" source="5nABSl6TricY1-DJC5i2-22" target="5nABSl6TricY1-DJC5i2-9" edge="1">
          <mxGeometry x="-1" y="3" relative="1" as="geometry">
            <mxPoint x="-104.5" y="845" as="sourcePoint" />
            <mxPoint x="55.5" y="845" as="targetPoint" />
          </mxGeometry>
        </mxCell>
        <mxCell id="5nABSl6TricY1-DJC5i2-27" value="&lt;p style=&quot;margin:0px;margin-top:4px;text-align:center;&quot;&gt;&lt;b&gt;Adapter&lt;/b&gt;&lt;/p&gt;&lt;hr size=&quot;1&quot;&gt;&lt;p style=&quot;margin:0px;margin-left:4px;&quot;&gt;&lt;span style=&quot;background-color: initial;&quot;&gt;+ select_hall()&lt;/span&gt;&lt;br&gt;&lt;/p&gt;&lt;p style=&quot;margin:0px;margin-left:4px;&quot;&gt;+ select_table()&lt;/p&gt;&lt;p style=&quot;margin:0px;margin-left:4px;&quot;&gt;+ select_datetime()&lt;/p&gt;&lt;p style=&quot;margin:0px;margin-left:4px;&quot;&gt;+ reserve_table()&lt;/p&gt;&lt;p style=&quot;margin:0px;margin-left:4px;&quot;&gt;+ chage_order()&lt;/p&gt;&lt;p style=&quot;margin:0px;margin-left:4px;&quot;&gt;+ cancel_order()&lt;/p&gt;&lt;p style=&quot;margin:0px;margin-left:4px;&quot;&gt;+ set_feedback()&lt;/p&gt;&lt;p style=&quot;margin:0px;margin-left:4px;&quot;&gt;+ change_feedback()&lt;/p&gt;&lt;p style=&quot;margin:0px;margin-left:4px;&quot;&gt;+ delete_feedback()&lt;/p&gt;" style="verticalAlign=top;align=left;overflow=fill;fontSize=12;fontFamily=Helvetica;html=1;whiteSpace=wrap;" parent="1" vertex="1">
          <mxGeometry x="-623.48" y="138" width="157.48" height="176" as="geometry" />
        </mxCell>
        <mxCell id="5nABSl6TricY1-DJC5i2-28" value="&lt;p style=&quot;margin:0px;margin-top:4px;text-align:center;&quot;&gt;&lt;b&gt;&lt;i&gt;&amp;lt;&amp;lt;Interface&amp;gt;&amp;gt; iAdapter&lt;/i&gt;&lt;/b&gt;&lt;/p&gt;&lt;hr size=&quot;1&quot;&gt;&lt;p style=&quot;border-color: var(--border-color); margin: 0px 0px 0px 4px;&quot;&gt;+ select_hall()&lt;br style=&quot;border-color: var(--border-color);&quot;&gt;&lt;/p&gt;&lt;p style=&quot;border-color: var(--border-color); margin: 0px 0px 0px 4px;&quot;&gt;+ select_table()&lt;/p&gt;&lt;p style=&quot;border-color: var(--border-color); margin: 0px 0px 0px 4px;&quot;&gt;+ select_datetime()&lt;/p&gt;&lt;p style=&quot;border-color: var(--border-color); margin: 0px 0px 0px 4px;&quot;&gt;+ reserve_table()&lt;/p&gt;&lt;p style=&quot;border-color: var(--border-color); margin: 0px 0px 0px 4px;&quot;&gt;+ chage_order()&lt;/p&gt;&lt;p style=&quot;border-color: var(--border-color); margin: 0px 0px 0px 4px;&quot;&gt;+ cancel_order()&lt;/p&gt;&lt;p style=&quot;border-color: var(--border-color); margin: 0px 0px 0px 4px;&quot;&gt;+ set_feedback()&lt;/p&gt;&lt;p style=&quot;border-color: var(--border-color); margin: 0px 0px 0px 4px;&quot;&gt;+ change_feedback()&lt;/p&gt;&lt;p style=&quot;border-color: var(--border-color); margin: 0px 0px 0px 4px;&quot;&gt;+ delete_feedback()&lt;/p&gt;" style="verticalAlign=top;align=left;overflow=fill;fontSize=12;fontFamily=Helvetica;html=1;whiteSpace=wrap;" parent="1" vertex="1">
          <mxGeometry x="-623.48" y="501" width="157.48" height="184" as="geometry" />
        </mxCell>
        <mxCell id="5nABSl6TricY1-DJC5i2-31" value="&lt;p style=&quot;margin:0px;margin-top:4px;text-align:center;&quot;&gt;&lt;b&gt;Repository&lt;/b&gt;&lt;/p&gt;&lt;hr size=&quot;1&quot;&gt;&lt;p style=&quot;border-color: var(--border-color); margin: 0px 0px 0px 4px;&quot;&gt;+ find_all_orders(): List&amp;lt;Order&amp;gt;&lt;/p&gt;&lt;p style=&quot;border-color: var(--border-color); margin: 0px 0px 0px 4px;&quot;&gt;+ find_by_client(client_id): List&amp;lt;Order&amp;gt;&lt;/p&gt;&lt;p style=&quot;border-color: var(--border-color); margin: 0px 0px 0px 4px;&quot;&gt;+ find_by_datet(): List&amp;lt;Order&amp;gt;&lt;/p&gt;" style="verticalAlign=top;align=left;overflow=fill;fontSize=12;fontFamily=Helvetica;html=1;whiteSpace=wrap;" parent="1" vertex="1">
          <mxGeometry x="-768" y="1830" width="302" height="157.48" as="geometry" />
        </mxCell>
        <mxCell id="5nABSl6TricY1-DJC5i2-32" value="&lt;p style=&quot;margin:0px;margin-top:4px;text-align:center;&quot;&gt;&lt;i style=&quot;border-color: var(--border-color); font-weight: 700;&quot;&gt;&amp;lt;&amp;lt;Interface&amp;gt;&amp;gt; iRepository&lt;/i&gt;&lt;/p&gt;&lt;hr size=&quot;1&quot;&gt;&lt;p style=&quot;border-color: var(--border-color); margin: 0px 0px 0px 4px;&quot;&gt;+ find_all_orders(): List&amp;lt;Order&amp;gt;&lt;/p&gt;&lt;p style=&quot;border-color: var(--border-color); margin: 0px 0px 0px 4px;&quot;&gt;+ find_by_client(client_id): List&amp;lt;Order&amp;gt;&lt;/p&gt;&lt;p style=&quot;border-color: var(--border-color); margin: 0px 0px 0px 4px;&quot;&gt;+ find_by_datet(): List&amp;lt;Order&amp;gt;&lt;/p&gt;" style="verticalAlign=top;align=left;overflow=fill;fontSize=12;fontFamily=Helvetica;html=1;whiteSpace=wrap;" parent="1" vertex="1">
          <mxGeometry x="-768" y="995" width="302" height="157.48" as="geometry" />
        </mxCell>
        <mxCell id="5nABSl6TricY1-DJC5i2-33" value="" style="endArrow=block;dashed=1;endFill=0;endSize=12;html=1;rounded=0;entryX=0.5;entryY=0;entryDx=0;entryDy=0;exitX=0.5;exitY=1;exitDx=0;exitDy=0;" parent="1" source="5nABSl6TricY1-DJC5i2-27" target="5nABSl6TricY1-DJC5i2-28" edge="1">
          <mxGeometry width="160" relative="1" as="geometry">
            <mxPoint x="-444" y="361" as="sourcePoint" />
            <mxPoint x="-284" y="361" as="targetPoint" />
          </mxGeometry>
        </mxCell>
        <mxCell id="5nABSl6TricY1-DJC5i2-34" value="" style="endArrow=block;dashed=1;endFill=0;endSize=12;html=1;rounded=0;exitX=0.5;exitY=0;exitDx=0;exitDy=0;entryX=0.5;entryY=1;entryDx=0;entryDy=0;" parent="1" source="5nABSl6TricY1-DJC5i2-31" target="5nABSl6TricY1-DJC5i2-32" edge="1">
          <mxGeometry width="160" relative="1" as="geometry">
            <mxPoint x="-539" y="1815" as="sourcePoint" />
            <mxPoint x="-508" y="1604" as="targetPoint" />
          </mxGeometry>
        </mxCell>
        <mxCell id="5nABSl6TricY1-DJC5i2-35" value="" style="endArrow=diamondThin;endFill=0;endSize=24;html=1;rounded=0;exitX=1.004;exitY=0.468;exitDx=0;exitDy=0;exitPerimeter=0;entryX=0;entryY=0.25;entryDx=0;entryDy=0;edgeStyle=orthogonalEdgeStyle;" parent="1" source="5nABSl6TricY1-DJC5i2-28" target="5nABSl6TricY1-DJC5i2-23" edge="1">
          <mxGeometry width="160" relative="1" as="geometry">
            <mxPoint x="-444" y="796" as="sourcePoint" />
            <mxPoint x="-284" y="796" as="targetPoint" />
          </mxGeometry>
        </mxCell>
        <mxCell id="5nABSl6TricY1-DJC5i2-36" value="" style="endArrow=diamondThin;endFill=0;endSize=24;html=1;rounded=0;entryX=0;entryY=0.5;entryDx=0;entryDy=0;exitX=1;exitY=0.5;exitDx=0;exitDy=0;edgeStyle=orthogonalEdgeStyle;" parent="1" source="5nABSl6TricY1-DJC5i2-32" target="5nABSl6TricY1-DJC5i2-23" edge="1">
          <mxGeometry width="160" relative="1" as="geometry">
            <mxPoint x="-444" y="796" as="sourcePoint" />
            <mxPoint x="-284" y="796" as="targetPoint" />
          </mxGeometry>
        </mxCell>
        <mxCell id="5nABSl6TricY1-DJC5i2-37" value="1" style="endArrow=open;html=1;endSize=12;startArrow=diamondThin;startSize=14;startFill=1;edgeStyle=orthogonalEdgeStyle;align=left;verticalAlign=bottom;rounded=0;entryX=0;entryY=0.5;entryDx=0;entryDy=0;exitX=0.999;exitY=0.386;exitDx=0;exitDy=0;exitPerimeter=0;" parent="1" source="5nABSl6TricY1-DJC5i2-23" target="5nABSl6TricY1-DJC5i2-22" edge="1">
          <mxGeometry x="-1" y="3" relative="1" as="geometry">
            <mxPoint x="-131" y="814" as="sourcePoint" />
            <mxPoint x="-87" y="579" as="targetPoint" />
          </mxGeometry>
        </mxCell>
        <mxCell id="5nABSl6TricY1-DJC5i2-38" value="1" style="endArrow=open;html=1;endSize=12;startArrow=diamondThin;startSize=14;startFill=1;edgeStyle=orthogonalEdgeStyle;align=left;verticalAlign=bottom;rounded=0;entryX=0;entryY=0.5;entryDx=0;entryDy=0;exitX=1;exitY=0.569;exitDx=0;exitDy=0;exitPerimeter=0;" parent="1" source="5nABSl6TricY1-DJC5i2-23" target="5nABSl6TricY1-DJC5i2-9" edge="1">
          <mxGeometry x="-1" y="3" relative="1" as="geometry">
            <mxPoint x="-444" y="796" as="sourcePoint" />
            <mxPoint x="-284" y="796" as="targetPoint" />
          </mxGeometry>
        </mxCell>
        <mxCell id="5nABSl6TricY1-DJC5i2-39" value="Use" style="endArrow=open;endSize=12;dashed=1;html=1;rounded=0;entryX=0;entryY=0.5;entryDx=0;entryDy=0;exitX=1;exitY=0.5;exitDx=0;exitDy=0;" parent="1" source="5nABSl6TricY1-DJC5i2-31" target="5nABSl6TricY1-DJC5i2-7" edge="1">
          <mxGeometry width="160" relative="1" as="geometry">
            <mxPoint x="-332" y="1522" as="sourcePoint" />
            <mxPoint x="-172" y="1522" as="targetPoint" />
          </mxGeometry>
        </mxCell>
        <mxCell id="5nABSl6TricY1-DJC5i2-40" value="" style="shape=folder;fontStyle=1;spacingTop=10;tabWidth=40;tabHeight=14;tabPosition=left;html=1;whiteSpace=wrap;fillColor=none;strokeColor=#007FFF;strokeWidth=7;" parent="1" vertex="1">
          <mxGeometry x="-822" y="1784" width="1644" height="381" as="geometry" />
        </mxCell>
        <mxCell id="5nABSl6TricY1-DJC5i2-41" value="" style="shape=folder;fontStyle=1;spacingTop=10;tabWidth=40;tabHeight=14;tabPosition=left;html=1;whiteSpace=wrap;fillColor=none;strokeColor=#FF9933;strokeWidth=7;" parent="1" vertex="1">
          <mxGeometry x="-823" y="460" width="1640" height="1307" as="geometry" />
        </mxCell>
        <mxCell id="5nABSl6TricY1-DJC5i2-42" value="" style="shape=folder;fontStyle=1;spacingTop=10;tabWidth=40;tabHeight=14;tabPosition=left;html=1;whiteSpace=wrap;fillColor=none;strokeColor=#33FF33;strokeWidth=7;" parent="1" vertex="1">
          <mxGeometry x="-822" y="50" width="1640" height="398" as="geometry" />
        </mxCell>
        <mxCell id="8vRCdp9rLOngcFGMXUnF-1" value="1" style="endArrow=open;html=1;endSize=12;startArrow=diamondThin;startSize=14;startFill=1;edgeStyle=orthogonalEdgeStyle;align=left;verticalAlign=bottom;rounded=0;entryX=0.5;entryY=0;entryDx=0;entryDy=0;exitX=0.5;exitY=1;exitDx=0;exitDy=0;" edge="1" parent="1" source="5nABSl6TricY1-DJC5i2-4" target="5nABSl6TricY1-DJC5i2-5">
          <mxGeometry x="-1" y="3" relative="1" as="geometry">
            <mxPoint x="285" y="1227" as="sourcePoint" />
            <mxPoint x="445" y="1227" as="targetPoint" />
          </mxGeometry>
        </mxCell>
        <mxCell id="8vRCdp9rLOngcFGMXUnF-2" value="&lt;p style=&quot;margin:0px;margin-top:4px;text-align:center;&quot;&gt;&lt;b&gt;Feedback&lt;/b&gt;&lt;/p&gt;&lt;hr size=&quot;1&quot;&gt;&lt;p style=&quot;margin:0px;margin-left:4px;&quot;&gt;- id: int&lt;/p&gt;&lt;p style=&quot;margin:0px;margin-left:4px;&quot;&gt;- date: datetime&lt;/p&gt;&lt;p style=&quot;margin:0px;margin-left:4px;&quot;&gt;- description: string&lt;/p&gt;&lt;p style=&quot;margin:0px;margin-left:4px;&quot;&gt;- client_id: Client&lt;/p&gt;&lt;hr size=&quot;1&quot;&gt;&lt;p style=&quot;margin:0px;margin-left:4px;&quot;&gt;+ Feedback(datetime, string, Client)&lt;/p&gt;&lt;p style=&quot;margin:0px;margin-left:4px;&quot;&gt;+ get_date(): datetime&lt;/p&gt;&lt;p style=&quot;margin:0px;margin-left:4px;&quot;&gt;+ get_description(): string&lt;/p&gt;&lt;p style=&quot;margin:0px;margin-left:4px;&quot;&gt;+ set_description(): string&lt;/p&gt;" style="verticalAlign=top;align=left;overflow=fill;fontSize=12;fontFamily=Helvetica;html=1;whiteSpace=wrap;" vertex="1" parent="1">
          <mxGeometry x="339.5" y="589" width="230" height="177" as="geometry" />
        </mxCell>
        <mxCell id="8vRCdp9rLOngcFGMXUnF-4" value="1" style="endArrow=open;html=1;endSize=12;startArrow=diamondThin;startSize=14;startFill=1;edgeStyle=orthogonalEdgeStyle;align=left;verticalAlign=bottom;rounded=0;entryX=0;entryY=0.5;entryDx=0;entryDy=0;exitX=1;exitY=0.5;exitDx=0;exitDy=0;" edge="1" parent="1" source="5nABSl6TricY1-DJC5i2-9" target="5nABSl6TricY1-DJC5i2-2">
          <mxGeometry x="-1" y="3" relative="1" as="geometry">
            <mxPoint x="195" y="956" as="sourcePoint" />
            <mxPoint x="355" y="956" as="targetPoint" />
          </mxGeometry>
        </mxCell>
        <mxCell id="8vRCdp9rLOngcFGMXUnF-7" value="1" style="endArrow=open;html=1;endSize=12;startArrow=diamondThin;startSize=14;startFill=0;edgeStyle=orthogonalEdgeStyle;align=left;verticalAlign=bottom;rounded=0;entryX=0;entryY=0.5;entryDx=0;entryDy=0;exitX=1;exitY=0.25;exitDx=0;exitDy=0;" edge="1" parent="1" source="5nABSl6TricY1-DJC5i2-9" target="8vRCdp9rLOngcFGMXUnF-2">
          <mxGeometry x="-1" y="3" relative="1" as="geometry">
            <mxPoint x="12" y="837" as="sourcePoint" />
            <mxPoint x="172" y="837" as="targetPoint" />
          </mxGeometry>
        </mxCell>
        <mxCell id="8vRCdp9rLOngcFGMXUnF-8" value="1" style="endArrow=open;html=1;endSize=12;startArrow=diamondThin;startSize=14;startFill=1;edgeStyle=orthogonalEdgeStyle;align=left;verticalAlign=bottom;rounded=0;entryX=0.5;entryY=0;entryDx=0;entryDy=0;exitX=0.5;exitY=1;exitDx=0;exitDy=0;" edge="1" parent="1" source="8vRCdp9rLOngcFGMXUnF-2" target="5nABSl6TricY1-DJC5i2-2">
          <mxGeometry x="-1" y="3" relative="1" as="geometry">
            <mxPoint x="12" y="837" as="sourcePoint" />
            <mxPoint x="172" y="837" as="targetPoint" />
          </mxGeometry>
        </mxCell>
      </root>
    </mxGraphModel>
  </diagram>
</mxfile>
